PathFileType	4	(X/Y/Z)	output.trc
DataRate	CameraRate	NumFrames	NumMarkers	Units	OrigDataRate	OrigDataStartFrame	OrigNumFrames
30	30	16	17	m	30	953	1089
Frame#	Time	root		right_hip		right_knee		right_ankle		left_hip		left_knee		left_ankle		torso		thorax		neck		head		left_shoulder		left_elbow		left_wrist		right_shoulder		right_elbow		right_wrist
		X1	Y1	Z1	X2	Y2	Z2	X3	Y3	Z3	X4	Y4	Z4	X5	Y5	Z5	X6	Y6	Z6	X7	Y7	Z7	X8	Y8	Z8	X9	Y9	Z9	X10	Y10	Z10	X11	Y11	Z11	X12	Y12	Z12	X13	Y13	Z13	X14	Y14	Z14	X15	Y15	Z15	X16	Y16	Z16	X17	Y17	Z17

953.0	31.733333	0.000222	-0.000068	0.818199	-0.002768	-0.100133	0.799779	-0.037682	-0.034230	0.419432	-0.014845	0.063537	0.000000	0.002794	0.100148	0.836608	-0.182838	0.113110	0.447451	-0.239111	0.101412	0.025769	0.031557	-0.012474	1.050483	0.058493	-0.028043	1.317213	-0.166996	-0.045932	1.379923	-0.153713	-0.070931	1.408596	0.073322	0.080318	1.318583	0.124770	0.128140	1.044550	0.106497	0.165208	0.798595	0.058044	-0.153949	1.274259	0.054532	-0.171246	1.025226	-0.071657	-0.183449	0.789510
954.0	31.766667	0.000231	-0.000064	0.813365	-0.006332	-0.093384	0.798407	-0.024262	-0.024887	0.408878	0.022504	0.073733	0.000000	0.006353	0.093396	0.828304	-0.177576	0.116111	0.430448	-0.305749	0.102597	0.022016	0.032265	-0.016865	1.046010	0.062155	-0.031035	1.313260	-0.168509	-0.042371	1.379515	-0.162909	-0.069602	1.403217	0.081123	0.068579	1.312341	0.142801	0.110004	1.037213	0.123248	0.143760	0.796013	0.056681	-0.152080	1.269291	0.052120	-0.163323	1.020357	-0.089508	-0.177740	0.797791
955.0	31.800000	0.000241	-0.000064	0.814520	-0.012135	-0.092577	0.802432	-0.014948	-0.014640	0.410960	0.042729	0.075078	0.000000	0.012159	0.092591	0.826589	-0.187888	0.119513	0.431110	-0.362959	0.104917	0.028789	0.024228	-0.020113	1.047048	0.052292	-0.033224	1.313934	-0.178268	-0.046084	1.378422	-0.173392	-0.073267	1.401703	0.076795	0.066450	1.312288	0.151849	0.107954	1.038308	0.112795	0.136920	0.798433	0.042138	-0.156413	1.273797	0.048802	-0.159395	1.021630	-0.108185	-0.182663	0.806698
956.0	31.833333	0.000246	-0.000065	0.809138	-0.007859	-0.091299	0.796671	-0.000870	-0.014971	0.404930	0.071177	0.088064	0.000000	0.007884	0.091313	0.821582	-0.191869	0.121770	0.426270	-0.387060	0.109815	0.027244	0.020189	-0.018105	1.042072	0.049016	-0.028008	1.311188	-0.181431	-0.043555	1.375815	-0.177316	-0.068444	1.401319	0.068409	0.071413	1.307332	0.159061	0.110090	1.032570	0.118534	0.140353	0.797166	0.044719	-0.152622	1.271734	0.053527	-0.152441	1.018761	-0.112056	-0.177360	0.811473
957.0	31.866667	0.000252	-0.000064	0.803995	-0.010697	-0.093529	0.791073	0.008756	-0.014082	0.397306	0.103336	0.100402	0.000000	0.010729	0.093547	0.816892	-0.204384	0.121724	0.418956	-0.394592	0.110456	0.009044	0.020120	-0.020124	1.038198	0.052040	-0.029272	1.306822	-0.182756	-0.045121	1.369024	-0.179295	-0.073378	1.391829	0.074190	0.069383	1.307872	0.149845	0.105095	1.028399	0.120002	0.130429	0.799570	0.042643	-0.155844	1.268720	0.055761	-0.148690	1.016702	-0.101353	-0.171164	0.807299
958.0	31.900000	0.000254	-0.000064	0.803735	-0.010064	-0.100140	0.789210	0.008818	-0.017977	0.398837	0.122957	0.108526	0.006720	0.010100	0.100160	0.818228	-0.211486	0.123542	0.419299	-0.395716	0.114644	0.000000	0.016337	-0.019015	1.038659	0.046023	-0.028000	1.306966	-0.185486	-0.044554	1.367953	-0.180908	-0.074432	1.390433	0.064489	0.075160	1.309138	0.134008	0.106407	1.027378	0.121077	0.131556	0.796792	0.040519	-0.159286	1.270205	0.056988	-0.152165	1.015363	-0.099958	-0.170418	0.804753
959.0	31.933333	0.000259	-0.000057	0.801779	0.019238	-0.090092	0.786933	0.049657	-0.026143	0.397101	0.189058	0.111748	0.010612	-0.019208	0.090108	0.816584	-0.174620	0.096312	0.414863	-0.355115	0.108522	0.000000	0.029870	-0.002861	1.032736	0.075564	-0.008376	1.308722	-0.146752	-0.018546	1.364857	-0.164328	-0.034946	1.390312	0.083450	0.083643	1.312148	0.184781	0.112986	1.034551	0.169837	0.127067	0.798377	0.080366	-0.132247	1.269437	0.085905	-0.124632	1.005360	-0.091321	-0.136796	0.788833
960.0	31.966667	0.000252	-0.000051	0.810136	0.028733	-0.087504	0.793667	0.050757	-0.032768	0.402635	0.214396	0.120494	0.024309	-0.028706	0.087519	0.826563	-0.162386	0.089335	0.422675	-0.333174	0.107510	0.000000	0.029945	-0.000200	1.038375	0.078097	-0.006775	1.316201	-0.129061	-0.018618	1.375851	-0.144657	-0.029027	1.403341	0.074455	0.082691	1.315090	0.167990	0.112864	1.040557	0.165575	0.124660	0.803807	0.093228	-0.125125	1.277555	0.109617	-0.119415	1.010235	-0.063551	-0.129938	0.794640
961.0	32.000000	0.000244	-0.000058	0.838106	0.037710	-0.093550	0.816068	0.043028	-0.040948	0.425003	0.235796	0.143198	0.055548	-0.037695	0.093558	0.860106	-0.168223	0.083658	0.440281	-0.314477	0.103745	0.000000	0.019461	0.004565	1.064621	0.050390	0.004944	1.340361	-0.143659	-0.004359	1.407210	-0.148592	-0.000500	1.440309	0.037530	0.109501	1.335088	0.121702	0.175310	1.067995	-0.037521	0.141390	1.068672	0.082909	-0.121914	1.303759	0.130478	-0.115807	1.046025	-0.014545	-0.113887	0.809195
962.0	32.033333	0.000251	-0.000061	0.841801	0.036995	-0.097877	0.817898	0.015876	-0.042772	0.428679	0.239720	0.141926	0.078448	-0.036975	0.097889	0.865661	-0.166865	0.083533	0.444477	-0.301864	0.099377	0.000000	0.020807	0.001789	1.066961	0.047941	0.004020	1.344089	-0.136801	-0.007696	1.411071	-0.145694	-0.007856	1.441335	0.029222	0.111898	1.341664	0.108875	0.183169	1.078192	-0.035507	0.144033	1.081478	0.088150	-0.123747	1.314118	0.144605	-0.113464	1.055049	0.007157	-0.115129	0.808770
963.0	32.066667	0.000258	-0.000064	0.844654	0.036197	-0.098883	0.822306	-0.012546	-0.052339	0.433928	0.234753	0.129962	0.094345	-0.036170	0.098898	0.866953	-0.163058	0.085054	0.450610	-0.293980	0.100673	0.000000	0.018112	0.001556	1.067698	0.044229	0.007646	1.345573	-0.138491	-0.007827	1.413603	-0.150464	-0.002193	1.442470	0.022323	0.114097	1.339741	0.102640	0.182789	1.075274	-0.044023	0.136539	1.095662	0.087259	-0.117451	1.323061	0.147971	-0.103685	1.066681	0.022443	-0.108792	0.799955
964.0	32.100000	0.000256	-0.000059	0.855263	0.032747	-0.103648	0.832637	-0.032053	-0.054339	0.440484	0.233989	0.111430	0.104440	-0.032724	0.103660	0.877846	-0.148463	0.093109	0.453463	-0.269885	0.106143	0.000000	0.021729	0.001905	1.078362	0.043199	0.008414	1.357126	-0.139832	-0.013321	1.423375	-0.149204	-0.006227	1.454390	0.020858	0.116164	1.348127	0.108876	0.178625	1.074134	-0.039593	0.131543	1.113128	0.090133	-0.119830	1.334257	0.161680	-0.101245	1.084856	0.044797	-0.097268	0.819272
965.0	32.133333	0.000250	-0.000058	0.841359	0.029932	-0.105572	0.817100	-0.059767	-0.058976	0.435440	0.192014	0.097959	0.105532	-0.029912	0.105583	0.865581	-0.139732	0.092686	0.449292	-0.244959	0.092043	0.000000	0.021221	-0.000221	1.064225	0.037574	0.007920	1.341312	-0.133528	-0.021579	1.411349	-0.142411	-0.010317	1.439228	0.007623	0.118450	1.327587	0.069249	0.168477	1.055215	-0.036236	0.157643	0.861446	0.092386	-0.122188	1.316594	0.179754	-0.110134	1.072954	0.054179	-0.120373	0.815324
966.0	32.166667	0.000245	-0.000055	0.838834	0.028813	-0.105754	0.812926	-0.063198	-0.066536	0.429558	0.167177	0.082617	0.090234	-0.028795	0.105763	0.864707	-0.135759	0.099149	0.450122	-0.216234	0.108196	0.000000	0.021309	0.000356	1.063064	0.036041	0.006018	1.339163	-0.132805	-0.026517	1.406390	-0.140529	-0.018278	1.430933	0.004728	0.114286	1.323720	0.057961	0.171891	1.052374	-0.039205	0.164390	0.850901	0.091427	-0.119459	1.318227	0.184642	-0.099686	1.078720	0.069786	-0.106067	0.820701
967.0	32.200000	0.000239	-0.000061	0.837044	0.027409	-0.104569	0.812805	-0.081958	-0.063513	0.429783	0.118047	0.054221	0.062355	-0.027384	0.104583	0.861253	-0.120457	0.107522	0.444120	-0.194651	0.118758	0.000000	0.023553	0.000497	1.062109	0.031606	0.004230	1.336195	-0.144011	-0.032051	1.405802	-0.147995	-0.022422	1.429242	-0.006014	0.111977	1.311976	0.028381	0.163327	1.034755	-0.033202	0.161364	0.812645	0.090524	-0.119859	1.313904	0.181454	-0.104367	1.074957	0.071928	-0.093598	0.818679
968.0	32.233333	0.000233	-0.000068	0.825998	0.024794	-0.101646	0.803718	-0.102403	-0.068168	0.428437	0.058214	0.023663	0.032298	-0.024761	0.101665	0.848248	-0.125509	0.115245	0.435577	-0.181779	0.128040	0.000000	0.014281	0.000410	1.051444	0.014669	0.005939	1.321979	-0.157273	-0.036125	1.394386	-0.159785	-0.018121	1.418216	-0.024869	0.108495	1.290314	-0.012479	0.148262	1.003831	-0.081225	0.141984	0.805215	0.072675	-0.111241	1.303821	0.164220	-0.091068	1.075060	0.073996	-0.083826	0.807015
